<?xml version="1.0" encoding="UTF-8" standalone="no"?>
<!-- Generator: Adobe Illustrator 24.0.0, SVG Export Plug-In . SVG Version: 6.00 Build 0)  -->

<svg
   version="1.1"
   id="Layer_1"
   x="0px"
   y="0px"
   viewBox="0 0 375 346.5"
   style="enable-background:new 0 0 375 346.5;"
   xml:space="preserve"
   sodipodi:docname="cardano-tools-logo.svg"
   inkscape:version="1.4 (86a8ad7, 2024-10-11)"
   xmlns:inkscape="http://www.inkscape.org/namespaces/inkscape"
   xmlns:sodipodi="http://sodipodi.sourceforge.net/DTD/sodipodi-0.dtd"
   xmlns="http://www.w3.org/2000/svg"
   xmlns:svg="http://www.w3.org/2000/svg"><defs
   id="defs30" /><sodipodi:namedview
   id="namedview30"
   pagecolor="#ffffff"
   bordercolor="#000000"
   borderopacity="0.25"
   inkscape:showpageshadow="2"
   inkscape:pageopacity="0.0"
   inkscape:pagecheckerboard="0"
   inkscape:deskcolor="#d1d1d1"
   inkscape:zoom="1.6839827"
   inkscape:cx="23.159383"
   inkscape:cy="155.28663"
   inkscape:window-width="2560"
   inkscape:window-height="1369"
   inkscape:window-x="-8"
   inkscape:window-y="-8"
   inkscape:window-maximized="1"
   inkscape:current-layer="Layer_1" />
<style
   type="text/css"
   id="style1">
	.st0{fill:#000;}
</style>
<g
   id="Layer_2_1_"
   transform="matrix(0.64864291,0,0,0.64864291,24.344097,11.277581)">
	<g
   id="Layer_1-2">
		<path
   class="st0"
   d="m 102.8,172 c -0.8,13.9 9.9,25.8 23.8,26.6 0.5,0 1,0 1.5,0 14,0 25.3,-11.3 25.2,-25.3 0,-14 -11.3,-25.3 -25.3,-25.2 -13.4,0 -24.5,10.5 -25.2,23.9 z"
   id="path1" />
		<path
   class="st0"
   d="m 8.6,165.5 c -4.5,-0.3 -8.4,3.2 -8.6,7.7 -0.2,4.5 3.2,8.4 7.7,8.6 4.5,0.3 8.3,-3.2 8.6,-7.7 0.3,-4.5 -3.2,-8.3 -7.7,-8.6 z"
   id="path2" />
		<path
   class="st0"
   d="m 101.2,25.4 c 4,-2 5.6,-7 3.6,-11 -2,-4 -7,-5.6 -11,-3.6 -4,2 -5.6,6.9 -3.6,10.9 2,4.1 6.9,5.8 11,3.7 -0.1,0 0,0 0,0 z"
   id="path3" />
		<path
   class="st0"
   d="m 126.8,70.1 c 6.2,-3.1 8.7,-10.7 5.6,-16.9 -3.1,-6.2 -10.7,-8.7 -16.9,-5.6 -6.2,3.1 -8.7,10.7 -5.6,16.9 3.1,6.2 10.7,8.7 16.9,5.6 z"
   id="path4" />
		<path
   class="st0"
   d="m 40.6,100.8 c 4.8,3.1 11.2,1.8 14.4,-3 3.1,-4.8 1.8,-11.2 -3,-14.4 -4.8,-3.1 -11.2,-1.8 -14.4,3 0,0 0,0 0,0 -3.2,4.8 -1.8,11.3 3,14.4 z"
   id="path5" />
		<path
   class="st0"
   d="m 55.9,161 c -7,-0.4 -12.9,4.9 -13.3,11.9 -0.4,7 4.9,12.9 11.9,13.3 7,0.4 12.9,-4.9 13.3,-11.9 0,0 0,0 0,0 0.4,-6.9 -4.9,-12.9 -11.9,-13.3 z"
   id="path6" />
		<path
   class="st0"
   d="m 42,245.7 c -5.1,2.6 -7.2,8.8 -4.6,14 2.6,5.1 8.8,7.2 14,4.6 5.1,-2.6 7.2,-8.8 4.6,-14 0,0 0,0 0,0 -2.6,-5.1 -8.9,-7.2 -14,-4.6 z"
   id="path7" />
		<path
   class="st0"
   d="m 91,134.9 c 6.9,4.5 16.1,2.6 20.5,-4.3 4.5,-6.9 2.6,-16.1 -4.3,-20.5 -6.9,-4.5 -16.1,-2.6 -20.5,4.3 -4.5,6.8 -2.6,16 4.3,20.5 z"
   id="path8" />
		<path
   class="st0"
   d="m 246.5,69.1 c 5.8,3.8 13.7,2.2 17.5,-3.6 3.8,-5.8 2.2,-13.7 -3.6,-17.5 -5.8,-3.8 -13.7,-2.2 -17.5,3.6 0,0 0,0 0,0 -3.9,5.9 -2.3,13.7 3.6,17.5 z"
   id="path9" />
		<path
   class="st0"
   d="m 272.3,24.6 c 3.8,2.5 8.8,1.4 11.3,-2.4 2.5,-3.8 1.4,-8.8 -2.4,-11.3 -3.8,-2.5 -8.8,-1.4 -11.3,2.3 -2.4,3.8 -1.3,8.9 2.4,11.4 z"
   id="path10" />
		<path
   class="st0"
   d="m 248.4,147.9 c -13.9,-0.8 -25.9,9.9 -26.6,23.8 -0.8,13.9 9.9,25.9 23.8,26.6 0.5,0 1,0 1.4,0 13.9,0 25.2,-11.3 25.2,-25.3 0.1,-13.3 -10.4,-24.4 -23.8,-25.1 z"
   id="path11" />
		<path
   class="st0"
   d="m 135.1,133.1 c 4.3,8.5 13,13.9 22.6,13.9 13.9,0 25.2,-11.3 25.2,-25.3 0,-3.9 -0.9,-7.8 -2.7,-11.4 -6.3,-12.5 -21.5,-17.5 -33.9,-11.2 -12.5,6.4 -17.5,21.6 -11.2,34 z"
   id="path12" />
		<path
   class="st0"
   d="m 333,100.8 c 5.1,-2.6 7.1,-8.9 4.5,-14 -2.6,-5.1 -8.9,-7.1 -14,-4.5 -5.1,2.6 -7.1,8.8 -4.6,13.9 2.7,5.1 8.9,7.2 14.1,4.6 z"
   id="path13" />
		<path
   class="st0"
   d="m 269,108.8 c -7.3,3.7 -10.3,12.6 -6.6,19.9 3.7,7.3 12.6,10.3 19.9,6.6 7.3,-3.7 10.3,-12.6 6.6,-19.9 -3.7,-7.3 -12.6,-10.2 -19.9,-6.6 z"
   id="path14" />
		<path
   class="st0"
   d="m 186.5,20.8 c 5.7,0.3 10.6,-4.1 11,-9.8 0.4,-5.7 -4.1,-10.6 -9.8,-11 -5.7,-0.3 -10.6,4 -11,9.7 -0.3,5.8 4.1,10.7 9.8,11.1 z"
   id="path15" />
		<path
   class="st0"
   d="m 186.4,86.1 c 8.2,0.5 15.2,-5.8 15.6,-14 0.5,-8.2 -5.8,-15.2 -14,-15.6 -8.2,-0.5 -15.2,5.8 -15.6,14 -0.4,8.2 5.8,15.2 14,15.6 z"
   id="path16" />
		<path
   class="st0"
   d="m 106,237.7 c 7.3,-3.7 10.3,-12.6 6.6,-19.9 -3.7,-7.3 -12.6,-10.3 -19.9,-6.6 -7.3,3.7 -10.3,12.6 -6.6,19.9 3.7,7.3 12.6,10.3 19.9,6.6 z"
   id="path17" />
		<path
   class="st0"
   d="m 196,107.8 c -7.6,11.7 -4.4,27.3 7.3,34.9 11.7,7.6 27.3,4.4 34.9,-7.3 7.6,-11.7 4.4,-27.3 -7.3,-34.9 -4.1,-2.7 -8.9,-4.1 -13.8,-4.1 -8.5,0 -16.4,4.3 -21.1,11.4 z"
   id="path18" />
		<path
   class="st0"
   d="m 239.9,213.4 c -6.3,-12.5 -21.5,-17.5 -33.9,-11.2 -12.5,6.3 -17.5,21.5 -11.2,33.9 6.3,12.5 21.5,17.5 33.9,11.2 0,0 0,0 0,0 12.4,-6.2 17.5,-21.2 11.3,-33.7 0,-0.1 0,-0.1 -0.1,-0.2 z"
   id="path19" />
		<path
   class="st0"
   d="m 284,211.6 c -6.9,-4.5 -16.1,-2.6 -20.5,4.3 -4.5,6.9 -2.6,16.1 4.3,20.5 6.9,4.5 16.1,2.6 20.5,-4.3 4.5,-6.8 2.6,-16 -4.3,-20.5 z"
   id="path20" />
		<path
   class="st0"
   d="m 332.4,173.7 c 0.4,-7 -4.9,-12.9 -11.9,-13.3 -7,-0.4 -12.9,4.9 -13.3,11.9 -0.4,7 4.9,12.9 11.9,13.3 0,0 0,0 0,0 6.9,0.4 12.9,-5 13.3,-11.9 z"
   id="path21" />
		<path
   class="st0"
   d="m 367.3,164.7 c -4.5,-0.3 -8.4,3.2 -8.6,7.7 -0.2,4.5 3.2,8.4 7.7,8.6 4.5,0.3 8.3,-3.2 8.6,-7.7 0.2,-4.5 -3.2,-8.3 -7.7,-8.6 z"
   id="path22" />
		<path
   class="st0"
   d="m 334.4,245.7 c -4.8,-3.1 -11.2,-1.8 -14.4,3 -3.1,4.8 -1.8,11.2 3,14.4 4.8,3.1 11.2,1.8 14.4,-3 3.2,-4.8 1.8,-11.3 -3,-14.4 z"
   id="path23" />
		<path
   class="st0"
   d="m 102.6,321.9 c -3.8,-2.5 -8.8,-1.4 -11.3,2.3 -2.5,3.8 -1.4,8.8 2.3,11.3 3.8,2.5 8.8,1.4 11.3,-2.3 0,0 0,0 0,0 2.6,-3.7 1.5,-8.8 -2.3,-11.3 z"
   id="path24" />
		<path
   class="st0"
   d="m 273.8,321.1 c -4,2 -5.6,7 -3.6,11 2,4 7,5.6 11,3.6 4,-2 5.6,-6.9 3.6,-10.9 -2,-4.1 -6.9,-5.8 -11,-3.7 0.1,0 0,0 0,0 z"
   id="path25" />
		<path
   class="st0"
   d="m 179,238.7 c 7.6,-11.7 4.4,-27.3 -7.3,-35 -11.7,-7.6 -27.3,-4.4 -35,7.3 -7.7,11.7 -4.4,27.3 7.3,35 4.1,2.7 8.9,4.1 13.8,4.1 8.6,0.1 16.5,-4.2 21.2,-11.4 z"
   id="path26" />
		<path
   class="st0"
   d="m 128.5,277.4 c -5.8,-3.8 -13.7,-2.2 -17.5,3.6 -3.8,5.8 -2.2,13.7 3.6,17.5 5.8,3.8 13.7,2.2 17.5,-3.6 0,0 0,0 0,0 3.9,-5.8 2.3,-13.7 -3.6,-17.5 z"
   id="path27" />
		<path
   class="st0"
   d="m 187.4,325.7 c -5.7,-0.3 -10.6,4.1 -11,9.8 -0.4,5.7 4.1,10.6 9.8,11 5.7,0.3 10.6,-4 11,-9.7 0.3,-5.8 -4.1,-10.7 -9.8,-11.1 z"
   id="path28" />
		<path
   class="st0"
   d="m 187.5,260.4 c -8.2,-0.5 -15.2,5.8 -15.6,14 -0.5,8.2 5.8,15.2 14,15.6 8.2,0.4 15.2,-5.8 15.6,-14 0.5,-8.1 -5.8,-15.2 -14,-15.6 z"
   id="path29" />
		<path
   class="st0"
   d="m 248.2,276.4 c -6.2,3.2 -8.7,10.8 -5.5,17 3.2,6.2 10.8,8.7 17,5.5 6.2,-3.1 8.7,-10.7 5.6,-16.9 -3.2,-6.2 -10.8,-8.8 -17.1,-5.6 z"
   id="path30" />
	</g>
</g>
<g
   inkscape:groupmode="layer"
   id="layer1"
   inkscape:label="Layer 1"><g
     style="fill:none;stroke:currentColor;stroke-width:1.5"
     id="g31"
     transform="matrix(9.0486011,0,0,9.0486011,142.19336,106.63622)"><path
       stroke-linecap="round"
       stroke-linejoin="round"
       d="m 10.551192,16.222362 7.396533,7.391161 a 3.3645977,3.3621542 0 0 0 4.757632,-4.754177 L 15.249195,11.4086 m -4.698003,4.813762 3.16668,-3.841376 c 0.402179,-0.486826 0.93884,-0.79363 1.532593,-0.971119 m -4.699273,4.812495 -5.9058071,7.166763 A 3.2326527,3.2303049 0 1 1 0.09581948,18.842865 L 8.7699347,11.705261 m 6.4805303,-0.295394 c 0.697785,-0.207916 1.475501,-0.238343 2.211347,-0.17749 A 5.709159,5.7050126 0 0 0 23.153209,3.1997206 L 18.996942,7.3542371 A 3.8111807,3.8084129 0 0 1 16.142362,4.5017312 L 20.29863,0.34848211 A 5.709159,5.7050126 0 0 0 12.260134,6.0357457 c 0.115463,1.364132 -0.09006,2.8702547 -1.146906,3.7399537 l -0.129412,0.107752 M 8.7699347,11.705258 3.5593761,6.4984831 H 1.771775 L -1.0828046,1.7443086 0.82024838,-0.15736249 5.577881,2.6951439 v 1.7863028 l 5.404671,5.4007457 M 8.7686667,11.703992 10.982552,9.8821924 M 19.375015,20.285599 16.044672,16.957674 M 2.2373887,21.236435 h 0.010161 v 0.01015 h -0.010161 z"
       id="path1-9"
       style="fill:#ffffff;fill-opacity:1;stroke-width:0.684736;stroke-dasharray:none" /></g></g></svg>
